<?xml version="1.0" standalone="no"?>
<!DOCTYPE svg PUBLIC "-//W3C//DTD SVG 20010904//EN"
 "http://www.w3.org/TR/2001/REC-SVG-20010904/DTD/svg10.dtd">
<svg version="1.0" xmlns="http://www.w3.org/2000/svg"
 width="700.000000pt" height="700.000000pt" viewBox="0 0 700.000000 700.000000"
 preserveAspectRatio="xMidYMid meet">
<metadata>
Created by potrace 1.11, written by Peter Selinger 2001-2013
</metadata>
<g transform="translate(0.000000,700.000000) scale(0.100000,-0.100000)"
fill="#000000" stroke="none">
<path d="M1128 6415 c-2 -2 -30 -5 -63 -9 -73 -8 -222 -78 -280 -133 -88 -82
-144 -170 -181 -283 -17 -52 -18 -192 -20 -2705 -2 -1457 -1 -2660 2 -2672 4
-19 95 68 584 557 l580 580 2097 2 2098 3 66 22 c64 22 160 78 213 124 41 35
101 117 132 178 61 122 57 -13 59 1986 2 1956 4 1878 -47 1998 -26 64 -87 148
-147 205 -56 51 -184 117 -266 135 -50 12 -474 14 -2442 14 -1311 0 -2384 -1
-2385 -2z m4699 -588 c5 -5 9 -3423 4 -3483 -1 -7 -616 -10 -2042 -10 l-2040
0 -290 -290 c-159 -159 -289 -287 -290 -284 0 3 -1 918 -2 2033 -2 1549 1
2030 10 2035 15 9 4641 7 4650 -1z"/>
</g>
</svg>
